# xmcd CD database file
#
# Track frame offsets:
#	187
#	2287
#	21399
#	42077
#	59754
#	77437
#	93259
#	111987
#	126364
#	147414
#	163377
#	185749
#	202622
#	210644
#	234504
#
# Disc length: 3369 seconds
#
# Revision: 3
# Processed by: cddbd v1.4PL0 Copyright (c) Steve Scherf et al.
# Submitted via: CDex 1.50Beta7
#
DISCID=cc0d270f
DTITLE=Newtone - Newtone
DYEAR=1997
DGENRE=Pop/Funk
TTITLE0=Before it comes...
TTITLE1=Self confidence
TTITLE2=Better friend
TTITLE3=Conspiracy of grooves
TTITLE4=Wish i sang like Marvin Gaye
TTITLE5=All stupidities
TTITLE6=To be with you
TTITLE7=Is that so
TTITLE8=I found a new baby
TTITLE9=In the beginning
TTITLE10=Gravity
TTITLE11=Sad to sever
TTITLE12=In the end
TTITLE13=In the beginning
TTITLE14=Self confidence
EXTD=YEAR: 1997
EXTT0=
EXTT1=
EXTT2=
EXTT3=
EXTT4=
EXTT5=
EXTT6=
EXTT7=
EXTT8=
EXTT9=
EXTT10=
EXTT11=
EXTT12=
EXTT13=
EXTT14=
PLAYORDER=
